<svg width="3455" height="118" viewBox="0 0 3455 118" fill="none" xmlns="http://www.w3.org/2000/svg">
<path d="M62.4 117.12C53.44 117.12 45.12 115.733 37.44 112.96C29.8667 110.08 23.2533 106.027 17.6 100.8C12.0533 95.5733 7.73333 89.3867 4.64 82.24C1.54667 75.0933 0 67.2 0 58.56C0 49.92 1.54667 42.0267 4.64 34.88C7.73333 27.7333 12.0533 21.5467 17.6 16.32C23.2533 11.0933 29.8667 7.09333 37.44 4.32C45.12 1.44 53.44 0 62.4 0C73.3867 0 83.0933 1.92 91.52 5.76C100.053 9.6 107.093 15.1467 112.64 22.4L88.8 43.68C85.4933 39.52 81.8133 36.32 77.76 34.08C73.8133 31.7333 69.3333 30.56 64.32 30.56C60.3733 30.56 56.8 31.2 53.6 32.48C50.4 33.76 47.6267 35.6267 45.28 38.08C43.04 40.5333 41.28 43.52 40 47.04C38.72 50.4533 38.08 54.2933 38.08 58.56C38.08 62.8267 38.72 66.72 40 70.24C41.28 73.6533 43.04 76.5867 45.28 79.04C47.6267 81.4933 50.4 83.36 53.6 84.64C56.8 85.92 60.3733 86.56 64.32 86.56C69.3333 86.56 73.8133 85.44 77.76 83.2C81.8133 80.8533 85.4933 77.6 88.8 73.44L112.64 94.72C107.093 101.867 100.053 107.413 91.52 111.36C83.0933 115.2 73.3867 117.12 62.4 117.12Z" fill="#F3F4F7"/>
<path d="M191.383 2.56H229.143V114.56H191.383V2.56ZM156.503 114.56H118.743V2.56H156.503V114.56ZM193.943 73.28H153.943V42.24H193.943V73.28Z" fill="#F3F4F7"/>
<path d="M276.296 90.56L274.216 49.12L316.456 2.56H357.576L310.216 54.72L289.256 76.16L276.296 90.56ZM242.536 114.56V2.56H279.656V114.56H242.536ZM316.136 114.56L283.176 71.04L307.656 45.12L359.816 114.56H316.136Z" fill="#F3F4F7"/>
<path d="M413.938 117.12C404.977 117.12 396.658 115.733 388.978 112.96C381.404 110.08 374.791 106.027 369.138 100.8C363.591 95.5733 359.271 89.3867 356.178 82.24C353.084 75.0933 351.538 67.2 351.538 58.56C351.538 49.92 353.084 42.0267 356.178 34.88C359.271 27.7333 363.591 21.5467 369.138 16.32C374.791 11.0933 381.404 7.09333 388.978 4.32C396.658 1.44 404.977 0 413.938 0C424.924 0 434.631 1.92 443.057 5.76C451.591 9.6 458.631 15.1467 464.178 22.4L440.338 43.68C437.031 39.52 433.351 36.32 429.298 34.08C425.351 31.7333 420.871 30.56 415.858 30.56C411.911 30.56 408.338 31.2 405.138 32.48C401.938 33.76 399.164 35.6267 396.818 38.08C394.578 40.5333 392.818 43.52 391.538 47.04C390.258 50.4533 389.618 54.2933 389.618 58.56C389.618 62.8267 390.258 66.72 391.538 70.24C392.818 73.6533 394.578 76.5867 396.818 79.04C399.164 81.4933 401.938 83.36 405.138 84.64C408.338 85.92 411.911 86.56 415.858 86.56C420.871 86.56 425.351 85.44 429.298 83.2C433.351 80.8533 437.031 77.6 440.338 73.44L464.178 94.72C458.631 101.867 451.591 107.413 443.057 111.36C434.631 115.2 424.924 117.12 413.938 117.12Z" fill="#F3F4F7"/>
<path d="M542.92 2.56H580.68V114.56H542.92V2.56ZM508.04 114.56H470.28V2.56H508.04V114.56ZM545.48 73.28H505.48V42.24H545.48V73.28Z" fill="#F3F4F7"/>
<path d="M627.834 90.56L625.754 49.12L667.994 2.56H709.114L661.754 54.72L640.794 76.16L627.834 90.56ZM594.074 114.56V2.56H631.194V114.56H594.074ZM667.674 114.56L634.714 71.04L659.194 45.12L711.354 114.56H667.674Z" fill="#F3F4F7"/>
<path d="M711.617 114.56V2.56H771.458C786.924 2.56 798.338 5.33333 805.698 10.88C813.058 16.32 816.738 23.3067 816.738 31.84C816.738 37.4933 815.138 42.56 811.938 47.04C808.844 51.4133 804.311 54.88 798.338 57.44C792.364 60 785.004 61.28 776.258 61.28L779.458 52.64C788.204 52.64 795.724 53.8667 802.018 56.32C808.418 58.7733 813.324 62.3467 816.738 67.04C820.258 71.6267 822.018 77.1733 822.018 83.68C822.018 93.3867 817.964 100.96 809.857 106.4C801.857 111.84 790.124 114.56 774.658 114.56H711.617ZM748.737 88.16H771.458C775.618 88.16 778.711 87.4133 780.737 85.92C782.871 84.4267 783.938 82.24 783.938 79.36C783.938 76.48 782.871 74.2933 780.737 72.8C778.711 71.3067 775.618 70.56 771.458 70.56H746.177V45.6H766.338C770.604 45.6 773.697 44.9067 775.617 43.52C777.644 42.0267 778.658 39.9467 778.658 37.28C778.658 34.5067 777.644 32.4267 775.617 31.04C773.697 29.6533 770.604 28.96 766.338 28.96H748.737V88.16Z" fill="#F3F4F7"/>
<path d="M889.288 117.12C880.221 117.12 871.794 115.68 864.008 112.8C856.328 109.92 849.661 105.867 844.008 100.64C838.354 95.3067 833.928 89.0667 830.728 81.92C827.634 74.7733 826.088 66.9867 826.088 58.56C826.088 50.0267 827.634 42.24 830.728 35.2C833.928 28.0533 838.354 21.8667 844.008 16.64C849.661 11.3067 856.328 7.2 864.008 4.32C871.794 1.44 880.221 0 889.288 0C898.461 0 906.888 1.44 914.568 4.32C922.248 7.2 928.914 11.3067 934.568 16.64C940.221 21.8667 944.594 28.0533 947.688 35.2C950.888 42.24 952.488 50.0267 952.488 58.56C952.488 66.9867 950.888 74.7733 947.688 81.92C944.594 89.0667 940.221 95.3067 934.568 100.64C928.914 105.867 922.248 109.92 914.568 112.8C906.888 115.68 898.461 117.12 889.288 117.12ZM889.288 86.56C892.808 86.56 896.061 85.92 899.048 84.64C902.141 83.36 904.808 81.5467 907.048 79.2C909.394 76.7467 911.208 73.8133 912.488 70.4C913.768 66.88 914.408 62.9333 914.408 58.56C914.408 54.1867 913.768 50.2933 912.488 46.88C911.208 43.36 909.394 40.4267 907.048 38.08C904.808 35.6267 902.141 33.76 899.048 32.48C896.061 31.2 892.808 30.56 889.288 30.56C885.768 30.56 882.461 31.2 879.368 32.48C876.381 33.76 873.714 35.6267 871.368 38.08C869.128 40.4267 867.368 43.36 866.088 46.88C864.808 50.2933 864.168 54.1867 864.168 58.56C864.168 62.9333 864.808 66.88 866.088 70.4C867.368 73.8133 869.128 76.7467 871.368 79.2C873.714 81.5467 876.381 83.36 879.368 84.64C882.461 85.92 885.768 86.56 889.288 86.56Z" fill="#F3F4F7"/>
<path d="M1020.11 117.12C1011.05 117.12 1002.62 115.68 994.832 112.8C987.152 109.92 980.486 105.867 974.832 100.64C969.179 95.3067 964.752 89.0667 961.552 81.92C958.459 74.7733 956.912 66.9867 956.912 58.56C956.912 50.0267 958.459 42.24 961.552 35.2C964.752 28.0533 969.179 21.8667 974.832 16.64C980.486 11.3067 987.152 7.2 994.832 4.32C1002.62 1.44 1011.05 0 1020.11 0C1029.29 0 1037.71 1.44 1045.39 4.32C1053.07 7.2 1059.74 11.3067 1065.39 16.64C1071.05 21.8667 1075.42 28.0533 1078.51 35.2C1081.71 42.24 1083.31 50.0267 1083.31 58.56C1083.31 66.9867 1081.71 74.7733 1078.51 81.92C1075.42 89.0667 1071.05 95.3067 1065.39 100.64C1059.74 105.867 1053.07 109.92 1045.39 112.8C1037.71 115.68 1029.29 117.12 1020.11 117.12ZM1020.11 86.56C1023.63 86.56 1026.89 85.92 1029.87 84.64C1032.97 83.36 1035.63 81.5467 1037.87 79.2C1040.22 76.7467 1042.03 73.8133 1043.31 70.4C1044.59 66.88 1045.23 62.9333 1045.23 58.56C1045.23 54.1867 1044.59 50.2933 1043.31 46.88C1042.03 43.36 1040.22 40.4267 1037.87 38.08C1035.63 35.6267 1032.97 33.76 1029.87 32.48C1026.89 31.2 1023.63 30.56 1020.11 30.56C1016.59 30.56 1013.29 31.2 1010.19 32.48C1007.21 33.76 1004.54 35.6267 1002.19 38.08C999.953 40.4267 998.192 43.36 996.912 46.88C995.632 50.2933 994.992 54.1867 994.992 58.56C994.992 62.9333 995.632 66.88 996.912 70.4C998.192 73.8133 999.953 76.7467 1002.19 79.2C1004.54 81.5467 1007.21 83.36 1010.19 84.64C1013.29 85.92 1016.59 86.56 1020.11 86.56Z" fill="#F3F4F7"/>
<path d="M1125.98 90.56L1123.9 49.12L1166.14 2.56H1207.26L1159.9 54.72L1138.94 76.16L1125.98 90.56ZM1092.22 114.56V2.56H1129.34V114.56H1092.22ZM1165.82 114.56L1132.86 71.04L1157.34 45.12L1209.5 114.56H1165.82Z" fill="#F3F4F7"/>
<path d="M1209.76 114.56V2.56H1269.6C1285.07 2.56 1296.48 5.33333 1303.84 10.88C1311.2 16.32 1314.88 23.3067 1314.88 31.84C1314.88 37.4933 1313.28 42.56 1310.08 47.04C1306.99 51.4133 1302.45 54.88 1296.48 57.44C1290.51 60 1283.15 61.28 1274.4 61.28L1277.6 52.64C1286.35 52.64 1293.87 53.8667 1300.16 56.32C1306.56 58.7733 1311.47 62.3467 1314.88 67.04C1318.4 71.6267 1320.16 77.1733 1320.16 83.68C1320.16 93.3867 1316.11 100.96 1308 106.4C1300 111.84 1288.27 114.56 1272.8 114.56H1209.76ZM1246.88 88.16H1269.6C1273.76 88.16 1276.85 87.4133 1278.88 85.92C1281.01 84.4267 1282.08 82.24 1282.08 79.36C1282.08 76.48 1281.01 74.2933 1278.88 72.8C1276.85 71.3067 1273.76 70.56 1269.6 70.56H1244.32V45.6H1264.48C1268.75 45.6 1271.84 44.9067 1273.76 43.52C1275.79 42.0267 1276.8 39.9467 1276.8 37.28C1276.8 34.5067 1275.79 32.4267 1273.76 31.04C1271.84 29.6533 1268.75 28.96 1264.48 28.96H1246.88V88.16Z" fill="#F3F4F7"/>
<path d="M1387.43 117.12C1378.36 117.12 1369.94 115.68 1362.15 112.8C1354.47 109.92 1347.8 105.867 1342.15 100.64C1336.5 95.3067 1332.07 89.0667 1328.87 81.92C1325.78 74.7733 1324.23 66.9867 1324.23 58.56C1324.23 50.0267 1325.78 42.24 1328.87 35.2C1332.07 28.0533 1336.5 21.8667 1342.15 16.64C1347.8 11.3067 1354.47 7.2 1362.15 4.32C1369.94 1.44 1378.36 0 1387.43 0C1396.6 0 1405.03 1.44 1412.71 4.32C1420.39 7.2 1427.06 11.3067 1432.71 16.64C1438.36 21.8667 1442.74 28.0533 1445.83 35.2C1449.03 42.24 1450.63 50.0267 1450.63 58.56C1450.63 66.9867 1449.03 74.7733 1445.83 81.92C1442.74 89.0667 1438.36 95.3067 1432.71 100.64C1427.06 105.867 1420.39 109.92 1412.71 112.8C1405.03 115.68 1396.6 117.12 1387.43 117.12ZM1387.43 86.56C1390.95 86.56 1394.2 85.92 1397.19 84.64C1400.28 83.36 1402.95 81.5467 1405.19 79.2C1407.54 76.7467 1409.35 73.8133 1410.63 70.4C1411.91 66.88 1412.55 62.9333 1412.55 58.56C1412.55 54.1867 1411.91 50.2933 1410.63 46.88C1409.35 43.36 1407.54 40.4267 1405.19 38.08C1402.95 35.6267 1400.28 33.76 1397.19 32.48C1394.2 31.2 1390.95 30.56 1387.43 30.56C1383.91 30.56 1380.6 31.2 1377.51 32.48C1374.52 33.76 1371.86 35.6267 1369.51 38.08C1367.27 40.4267 1365.51 43.36 1364.23 46.88C1362.95 50.2933 1362.31 54.1867 1362.31 58.56C1362.31 62.9333 1362.95 66.88 1364.23 70.4C1365.51 73.8133 1367.27 76.7467 1369.51 79.2C1371.86 81.5467 1374.52 83.36 1377.51 84.64C1380.6 85.92 1383.91 86.56 1387.43 86.56Z" fill="#F3F4F7"/>
<path d="M1518.26 117.12C1509.19 117.12 1500.76 115.68 1492.98 112.8C1485.3 109.92 1478.63 105.867 1472.98 100.64C1467.32 95.3067 1462.9 89.0667 1459.7 81.92C1456.6 74.7733 1455.06 66.9867 1455.06 58.56C1455.06 50.0267 1456.6 42.24 1459.7 35.2C1462.9 28.0533 1467.32 21.8667 1472.98 16.64C1478.63 11.3067 1485.3 7.2 1492.98 4.32C1500.76 1.44 1509.19 0 1518.26 0C1527.43 0 1535.86 1.44 1543.54 4.32C1551.22 7.2 1557.88 11.3067 1563.54 16.64C1569.19 21.8667 1573.56 28.0533 1576.66 35.2C1579.86 42.24 1581.46 50.0267 1581.46 58.56C1581.46 66.9867 1579.86 74.7733 1576.66 81.92C1573.56 89.0667 1569.19 95.3067 1563.54 100.64C1557.88 105.867 1551.22 109.92 1543.54 112.8C1535.86 115.68 1527.43 117.12 1518.26 117.12ZM1518.26 86.56C1521.78 86.56 1525.03 85.92 1528.02 84.64C1531.11 83.36 1533.78 81.5467 1536.02 79.2C1538.36 76.7467 1540.18 73.8133 1541.46 70.4C1542.74 66.88 1543.38 62.9333 1543.38 58.56C1543.38 54.1867 1542.74 50.2933 1541.46 46.88C1540.18 43.36 1538.36 40.4267 1536.02 38.08C1533.78 35.6267 1531.11 33.76 1528.02 32.48C1525.03 31.2 1521.78 30.56 1518.26 30.56C1514.74 30.56 1511.43 31.2 1508.34 32.48C1505.35 33.76 1502.68 35.6267 1500.34 38.08C1498.1 40.4267 1496.34 43.36 1495.06 46.88C1493.78 50.2933 1493.14 54.1867 1493.14 58.56C1493.14 62.9333 1493.78 66.88 1495.06 70.4C1496.34 73.8133 1498.1 76.7467 1500.34 79.2C1502.68 81.5467 1505.35 83.36 1508.34 84.64C1511.43 85.92 1514.74 86.56 1518.26 86.56Z" fill="#F3F4F7"/>
<path d="M1624.12 90.56L1622.04 49.12L1664.28 2.56H1705.4L1658.04 54.72L1637.08 76.16L1624.12 90.56ZM1590.36 114.56V2.56H1627.48V114.56H1590.36ZM1663.96 114.56L1631 71.04L1655.48 45.12L1707.64 114.56H1663.96Z" fill="#F3F4F7"/>
<path d="M1808.99 117.12C1800.03 117.12 1791.71 115.733 1784.03 112.96C1776.46 110.08 1769.85 106.027 1764.19 100.8C1758.65 95.5733 1754.33 89.3867 1751.23 82.24C1748.14 75.0933 1746.59 67.2 1746.59 58.56C1746.59 49.92 1748.14 42.0267 1751.23 34.88C1754.33 27.7333 1758.65 21.5467 1764.19 16.32C1769.85 11.0933 1776.46 7.09333 1784.03 4.32C1791.71 1.44 1800.03 0 1808.99 0C1819.98 0 1829.69 1.92 1838.11 5.76C1846.65 9.6 1853.69 15.1467 1859.23 22.4L1835.39 43.68C1832.09 39.52 1828.41 36.32 1824.35 34.08C1820.41 31.7333 1815.93 30.56 1810.91 30.56C1806.97 30.56 1803.39 31.2 1800.19 32.48C1796.99 33.76 1794.22 35.6267 1791.87 38.08C1789.63 40.5333 1787.87 43.52 1786.59 47.04C1785.31 50.4533 1784.67 54.2933 1784.67 58.56C1784.67 62.8267 1785.31 66.72 1786.59 70.24C1787.87 73.6533 1789.63 76.5867 1791.87 79.04C1794.22 81.4933 1796.99 83.36 1800.19 84.64C1803.39 85.92 1806.97 86.56 1810.91 86.56C1815.93 86.56 1820.41 85.44 1824.35 83.2C1828.41 80.8533 1832.09 77.6 1835.39 73.44L1859.23 94.72C1853.69 101.867 1846.65 107.413 1838.11 111.36C1829.69 115.2 1819.98 117.12 1808.99 117.12Z" fill="#F3F4F7"/>
<path d="M1937.98 2.56H1975.74V114.56H1937.98V2.56ZM1903.1 114.56H1865.34V2.56H1903.1V114.56ZM1940.54 73.28H1900.54V42.24H1940.54V73.28Z" fill="#F3F4F7"/>
<path d="M2022.89 90.56L2020.81 49.12L2063.05 2.56H2104.17L2056.81 54.72L2035.85 76.16L2022.89 90.56ZM1989.13 114.56V2.56H2026.25V114.56H1989.13ZM2062.73 114.56L2029.77 71.04L2054.25 45.12L2106.41 114.56H2062.73Z" fill="#F3F4F7"/>
<path d="M2160.53 117.12C2151.57 117.12 2143.25 115.733 2135.57 112.96C2128 110.08 2121.38 106.027 2115.73 100.8C2110.18 95.5733 2105.86 89.3867 2102.77 82.24C2099.68 75.0933 2098.13 67.2 2098.13 58.56C2098.13 49.92 2099.68 42.0267 2102.77 34.88C2105.86 27.7333 2110.18 21.5467 2115.73 16.32C2121.38 11.0933 2128 7.09333 2135.57 4.32C2143.25 1.44 2151.57 0 2160.53 0C2171.52 0 2181.22 1.92 2189.65 5.76C2198.18 9.6 2205.22 15.1467 2210.77 22.4L2186.93 43.68C2183.62 39.52 2179.94 36.32 2175.89 34.08C2171.94 31.7333 2167.46 30.56 2162.45 30.56C2158.5 30.56 2154.93 31.2 2151.73 32.48C2148.53 33.76 2145.76 35.6267 2143.41 38.08C2141.17 40.5333 2139.41 43.52 2138.13 47.04C2136.85 50.4533 2136.21 54.2933 2136.21 58.56C2136.21 62.8267 2136.85 66.72 2138.13 70.24C2139.41 73.6533 2141.17 76.5867 2143.41 79.04C2145.76 81.4933 2148.53 83.36 2151.73 84.64C2154.93 85.92 2158.5 86.56 2162.45 86.56C2167.46 86.56 2171.94 85.44 2175.89 83.2C2179.94 80.8533 2183.62 77.6 2186.93 73.44L2210.77 94.72C2205.22 101.867 2198.18 107.413 2189.65 111.36C2181.22 115.2 2171.52 117.12 2160.53 117.12Z" fill="#F3F4F7"/>
<path d="M2289.51 2.56H2327.27V114.56H2289.51V2.56ZM2254.63 114.56H2216.87V2.56H2254.63V114.56ZM2292.07 73.28H2252.07V42.24H2292.07V73.28Z" fill="#F3F4F7"/>
<path d="M2374.43 90.56L2372.35 49.12L2414.59 2.56H2455.71L2408.35 54.72L2387.39 76.16L2374.43 90.56ZM2340.67 114.56V2.56H2377.79V114.56H2340.67ZM2414.27 114.56L2381.31 71.04L2405.79 45.12L2457.95 114.56H2414.27Z" fill="#F3F4F7"/>
<path d="M2458.21 114.56V2.56H2518.05C2533.52 2.56 2544.93 5.33333 2552.29 10.88C2559.65 16.32 2563.33 23.3067 2563.33 31.84C2563.33 37.4933 2561.73 42.56 2558.53 47.04C2555.44 51.4133 2550.9 54.88 2544.93 57.44C2538.96 60 2531.6 61.28 2522.85 61.28L2526.05 52.64C2534.8 52.64 2542.32 53.8667 2548.61 56.32C2555.01 58.7733 2559.92 62.3467 2563.33 67.04C2566.85 71.6267 2568.61 77.1733 2568.61 83.68C2568.61 93.3867 2564.56 100.96 2556.45 106.4C2548.45 111.84 2536.72 114.56 2521.25 114.56H2458.21ZM2495.33 88.16H2518.05C2522.21 88.16 2525.3 87.4133 2527.33 85.92C2529.46 84.4267 2530.53 82.24 2530.53 79.36C2530.53 76.48 2529.46 74.2933 2527.33 72.8C2525.3 71.3067 2522.21 70.56 2518.05 70.56H2492.77V45.6H2512.93C2517.2 45.6 2520.29 44.9067 2522.21 43.52C2524.24 42.0267 2525.25 39.9467 2525.25 37.28C2525.25 34.5067 2524.24 32.4267 2522.21 31.04C2520.29 29.6533 2517.2 28.96 2512.93 28.96H2495.33V88.16Z" fill="#F3F4F7"/>
<path d="M2635.88 117.12C2626.81 117.12 2618.39 115.68 2610.6 112.8C2602.92 109.92 2596.25 105.867 2590.6 100.64C2584.95 95.3067 2580.52 89.0667 2577.32 81.92C2574.23 74.7733 2572.68 66.9867 2572.68 58.56C2572.68 50.0267 2574.23 42.24 2577.32 35.2C2580.52 28.0533 2584.95 21.8667 2590.6 16.64C2596.25 11.3067 2602.92 7.2 2610.6 4.32C2618.39 1.44 2626.81 0 2635.88 0C2645.05 0 2653.48 1.44 2661.16 4.32C2668.84 7.2 2675.51 11.3067 2681.16 16.64C2686.81 21.8667 2691.19 28.0533 2694.28 35.2C2697.48 42.24 2699.08 50.0267 2699.08 58.56C2699.08 66.9867 2697.48 74.7733 2694.28 81.92C2691.19 89.0667 2686.81 95.3067 2681.16 100.64C2675.51 105.867 2668.84 109.92 2661.16 112.8C2653.48 115.68 2645.05 117.12 2635.88 117.12ZM2635.88 86.56C2639.4 86.56 2642.65 85.92 2645.64 84.64C2648.73 83.36 2651.4 81.5467 2653.64 79.2C2655.99 76.7467 2657.8 73.8133 2659.08 70.4C2660.36 66.88 2661 62.9333 2661 58.56C2661 54.1867 2660.36 50.2933 2659.08 46.88C2657.8 43.36 2655.99 40.4267 2653.64 38.08C2651.4 35.6267 2648.73 33.76 2645.64 32.48C2642.65 31.2 2639.4 30.56 2635.88 30.56C2632.36 30.56 2629.05 31.2 2625.96 32.48C2622.97 33.76 2620.31 35.6267 2617.96 38.08C2615.72 40.4267 2613.96 43.36 2612.68 46.88C2611.4 50.2933 2610.76 54.1867 2610.76 58.56C2610.76 62.9333 2611.4 66.88 2612.68 70.4C2613.96 73.8133 2615.72 76.7467 2617.96 79.2C2620.31 81.5467 2622.97 83.36 2625.96 84.64C2629.05 85.92 2632.36 86.56 2635.88 86.56Z" fill="#F3F4F7"/>
<path d="M2766.71 117.12C2757.64 117.12 2749.21 115.68 2741.43 112.8C2733.75 109.92 2727.08 105.867 2721.43 100.64C2715.77 95.3067 2711.35 89.0667 2708.15 81.92C2705.05 74.7733 2703.51 66.9867 2703.51 58.56C2703.51 50.0267 2705.05 42.24 2708.15 35.2C2711.35 28.0533 2715.77 21.8667 2721.43 16.64C2727.08 11.3067 2733.75 7.2 2741.43 4.32C2749.21 1.44 2757.64 0 2766.71 0C2775.88 0 2784.31 1.44 2791.99 4.32C2799.67 7.2 2806.33 11.3067 2811.99 16.64C2817.64 21.8667 2822.01 28.0533 2825.11 35.2C2828.31 42.24 2829.91 50.0267 2829.91 58.56C2829.91 66.9867 2828.31 74.7733 2825.11 81.92C2822.01 89.0667 2817.64 95.3067 2811.99 100.64C2806.33 105.867 2799.67 109.92 2791.99 112.8C2784.31 115.68 2775.88 117.12 2766.71 117.12ZM2766.71 86.56C2770.23 86.56 2773.48 85.92 2776.47 84.64C2779.56 83.36 2782.23 81.5467 2784.47 79.2C2786.81 76.7467 2788.63 73.8133 2789.91 70.4C2791.19 66.88 2791.83 62.9333 2791.83 58.56C2791.83 54.1867 2791.19 50.2933 2789.91 46.88C2788.63 43.36 2786.81 40.4267 2784.47 38.08C2782.23 35.6267 2779.56 33.76 2776.47 32.48C2773.48 31.2 2770.23 30.56 2766.71 30.56C2763.19 30.56 2759.88 31.2 2756.79 32.48C2753.8 33.76 2751.13 35.6267 2748.79 38.08C2746.55 40.4267 2744.79 43.36 2743.51 46.88C2742.23 50.2933 2741.59 54.1867 2741.59 58.56C2741.59 62.9333 2742.23 66.88 2743.51 70.4C2744.79 73.8133 2746.55 76.7467 2748.79 79.2C2751.13 81.5467 2753.8 83.36 2756.79 84.64C2759.88 85.92 2763.19 86.56 2766.71 86.56Z" fill="#F3F4F7"/>
<path d="M2872.57 90.56L2870.49 49.12L2912.73 2.56H2953.85L2906.49 54.72L2885.53 76.16L2872.57 90.56ZM2838.81 114.56V2.56H2875.93V114.56H2838.81ZM2912.41 114.56L2879.45 71.04L2903.93 45.12L2956.09 114.56H2912.41Z" fill="#F3F4F7"/>
<path d="M2956.35 114.56V2.56H3016.2C3031.66 2.56 3043.08 5.33333 3050.44 10.88C3057.8 16.32 3061.48 23.3067 3061.48 31.84C3061.48 37.4933 3059.88 42.56 3056.68 47.04C3053.58 51.4133 3049.05 54.88 3043.07 57.44C3037.1 60 3029.74 61.28 3021 61.28L3024.2 52.64C3032.94 52.64 3040.46 53.8667 3046.76 56.32C3053.16 58.7733 3058.06 62.3467 3061.48 67.04C3065 71.6267 3066.76 77.1733 3066.76 83.68C3066.76 93.3867 3062.7 100.96 3054.59 106.4C3046.59 111.84 3034.86 114.56 3019.4 114.56H2956.35ZM2993.48 88.16H3016.2C3020.36 88.16 3023.45 87.4133 3025.48 85.92C3027.61 84.4267 3028.68 82.24 3028.68 79.36C3028.68 76.48 3027.61 74.2933 3025.48 72.8C3023.45 71.3067 3020.36 70.56 3016.2 70.56H2990.92V45.6H3011.07C3015.34 45.6 3018.43 44.9067 3020.35 43.52C3022.38 42.0267 3023.4 39.9467 3023.4 37.28C3023.4 34.5067 3022.38 32.4267 3020.35 31.04C3018.43 29.6533 3015.34 28.96 3011.07 28.96H2993.48V88.16Z" fill="#F3F4F7"/>
<path d="M3134.02 117.12C3124.96 117.12 3116.53 115.68 3108.74 112.8C3101.06 109.92 3094.4 105.867 3088.74 100.64C3083.09 95.3067 3078.66 89.0667 3075.46 81.92C3072.37 74.7733 3070.82 66.9867 3070.82 58.56C3070.82 50.0267 3072.37 42.24 3075.46 35.2C3078.66 28.0533 3083.09 21.8667 3088.74 16.64C3094.4 11.3067 3101.06 7.2 3108.74 4.32C3116.53 1.44 3124.96 0 3134.02 0C3143.2 0 3151.62 1.44 3159.3 4.32C3166.98 7.2 3173.65 11.3067 3179.3 16.64C3184.96 21.8667 3189.33 28.0533 3192.43 35.2C3195.63 42.24 3197.22 50.0267 3197.22 58.56C3197.22 66.9867 3195.63 74.7733 3192.43 81.92C3189.33 89.0667 3184.96 95.3067 3179.3 100.64C3173.65 105.867 3166.98 109.92 3159.3 112.8C3151.62 115.68 3143.2 117.12 3134.02 117.12ZM3134.02 86.56C3137.54 86.56 3140.8 85.92 3143.78 84.64C3146.88 83.36 3149.54 81.5467 3151.78 79.2C3154.13 76.7467 3155.94 73.8133 3157.22 70.4C3158.5 66.88 3159.15 62.9333 3159.15 58.56C3159.15 54.1867 3158.5 50.2933 3157.22 46.88C3155.94 43.36 3154.13 40.4267 3151.78 38.08C3149.54 35.6267 3146.88 33.76 3143.78 32.48C3140.8 31.2 3137.54 30.56 3134.02 30.56C3130.5 30.56 3127.2 31.2 3124.1 32.48C3121.12 33.76 3118.45 35.6267 3116.1 38.08C3113.86 40.4267 3112.1 43.36 3110.82 46.88C3109.54 50.2933 3108.91 54.1867 3108.91 58.56C3108.91 62.9333 3109.54 66.88 3110.82 70.4C3112.1 73.8133 3113.86 76.7467 3116.1 79.2C3118.45 81.5467 3121.12 83.36 3124.1 84.64C3127.2 85.92 3130.5 86.56 3134.02 86.56Z" fill="#F3F4F7"/>
<path d="M3264.85 117.12C3255.78 117.12 3247.36 115.68 3239.57 112.8C3231.89 109.92 3225.22 105.867 3219.57 100.64C3213.92 95.3067 3209.49 89.0667 3206.29 81.92C3203.2 74.7733 3201.65 66.9867 3201.65 58.56C3201.65 50.0267 3203.2 42.24 3206.29 35.2C3209.49 28.0533 3213.92 21.8667 3219.57 16.64C3225.22 11.3067 3231.89 7.2 3239.57 4.32C3247.36 1.44 3255.78 0 3264.85 0C3274.02 0 3282.45 1.44 3290.13 4.32C3297.81 7.2 3304.48 11.3067 3310.13 16.64C3315.78 21.8667 3320.16 28.0533 3323.25 35.2C3326.45 42.24 3328.05 50.0267 3328.05 58.56C3328.05 66.9867 3326.45 74.7733 3323.25 81.92C3320.16 89.0667 3315.78 95.3067 3310.13 100.64C3304.48 105.867 3297.81 109.92 3290.13 112.8C3282.45 115.68 3274.02 117.12 3264.85 117.12ZM3264.85 86.56C3268.37 86.56 3271.62 85.92 3274.61 84.64C3277.7 83.36 3280.37 81.5467 3282.61 79.2C3284.96 76.7467 3286.77 73.8133 3288.05 70.4C3289.33 66.88 3289.97 62.9333 3289.97 58.56C3289.97 54.1867 3289.33 50.2933 3288.05 46.88C3286.77 43.36 3284.96 40.4267 3282.61 38.08C3280.37 35.6267 3277.7 33.76 3274.61 32.48C3271.62 31.2 3268.37 30.56 3264.85 30.56C3261.33 30.56 3258.02 31.2 3254.93 32.48C3251.94 33.76 3249.28 35.6267 3246.93 38.08C3244.69 40.4267 3242.93 43.36 3241.65 46.88C3240.37 50.2933 3239.73 54.1867 3239.73 58.56C3239.73 62.9333 3240.37 66.88 3241.65 70.4C3242.93 73.8133 3244.69 76.7467 3246.93 79.2C3249.28 81.5467 3251.94 83.36 3254.93 84.64C3258.02 85.92 3261.33 86.56 3264.85 86.56Z" fill="#F3F4F7"/>
<path d="M3370.72 90.56L3368.64 49.12L3410.88 2.56H3452L3404.64 54.72L3383.68 76.16L3370.72 90.56ZM3336.96 114.56V2.56H3374.08V114.56H3336.96ZM3410.56 114.56L3377.6 71.04L3402.08 45.12L3454.24 114.56H3410.56Z" fill="#F3F4F7"/>
</svg>
