<svg width="426" height="105" viewBox="0 0 426 105" fill="none" xmlns="http://www.w3.org/2000/svg">
<path d="M77 0C30.562 0 1.029 21.77 0.0279999 54.278L0 56C0 61.5695 2.21249 66.911 6.15076 70.8492C10.089 74.7875 15.4305 77 21 77H133C134.857 77 136.637 76.2625 137.95 74.9497C139.263 73.637 140 71.8565 140 70V7C140 5.14348 139.263 3.36301 137.95 2.05025C136.637 0.737499 134.857 0 133 0H77ZM105 14H126V35H105V14ZM77 14H91V35H70V14.182C72.3313 14.0599 74.6655 13.9992 77 14ZM55.993 15.799L56 35H20.72C27.573 25.641 39.543 18.858 55.993 15.799ZM7 91C5.14348 91 3.363 91.7375 2.05025 93.0502C0.737493 94.363 0 96.1435 0 98C0 99.8565 0.737493 101.637 2.05025 102.95C3.363 104.263 5.14348 105 7 105H133C134.857 105 136.637 104.263 137.95 102.95C139.263 101.637 140 99.8565 140 98C140 96.1435 139.263 94.363 137.95 93.0502C136.637 91.7375 134.857 91 133 91H7Z" fill="#00A791"/>
<path d="M185.5 27.31H194.74V29.41C194.74 33.2367 194.11 36.9 192.85 40.4C191.59 43.8533 189.583 46.8867 186.83 49.5C184.077 52.0667 180.413 53.9333 175.84 55.1L170.66 46.35C174.44 45.3233 177.403 43.9233 179.55 42.15C181.697 40.33 183.213 38.3 184.1 36.06C185.033 33.82 185.5 31.6033 185.5 29.41V27.31ZM187.67 27.31H196.84V29.41C196.84 30.95 197.097 32.5133 197.61 34.1C198.123 35.6867 198.94 37.2033 200.06 38.65C201.227 40.0967 202.767 41.4033 204.68 42.57C206.593 43.69 208.95 44.6 211.75 45.3L206.64 54.05C202.113 52.93 198.45 51.1333 195.65 48.66C192.85 46.1867 190.82 43.2933 189.56 39.98C188.3 36.62 187.67 33.0967 187.67 29.41V27.31ZM173.18 21.15H209.16V29.9H173.18V21.15ZM185.5 14.78H196.84V24.72H185.5V14.78ZM214.13 14.92H225.47V55.17H214.13V14.92ZM180.18 57.62H225.47V80.65H214.13V66.51H180.18V57.62ZM249.895 27.31H259.135V29.41C259.135 33.2367 258.505 36.9 257.245 40.4C255.985 43.8533 253.978 46.8867 251.225 49.5C248.471 52.0667 244.808 53.9333 240.235 55.1L235.055 46.35C238.835 45.3233 241.798 43.9233 243.945 42.15C246.091 40.33 247.608 38.3 248.495 36.06C249.428 33.82 249.895 31.6033 249.895 29.41V27.31ZM252.065 27.31H261.235V29.41C261.235 30.95 261.491 32.5133 262.005 34.1C262.518 35.6867 263.335 37.2033 264.455 38.65C265.621 40.0967 267.161 41.4033 269.075 42.57C270.988 43.69 273.345 44.6 276.145 45.3L271.035 54.05C266.508 52.93 262.845 51.1333 260.045 48.66C257.245 46.1867 255.215 43.2933 253.955 39.98C252.695 36.62 252.065 33.0967 252.065 29.41V27.31ZM237.575 21.15H273.555V29.9H237.575V21.15ZM249.895 14.78H261.235V24.72H249.895V14.78ZM278.525 14.92H289.865V55.17H278.525V14.92ZM244.575 57.62H289.865V80.65H278.525V66.51H244.575V57.62Z" fill="black"/>
<path d="M323.179 52.72H334.449V61.96H323.179V52.72ZM299.239 45.72H358.669V54.61H299.239V45.72ZM305.819 59.02H351.599V80.65H340.329V67.84H305.819V59.02ZM306.659 16.67H317.789V21.57H340.049V16.67H351.249V42.43H306.659V16.67ZM317.789 29.9V33.68H340.049V29.9H317.789ZM387.574 52.72H398.844V61.96H387.574V52.72ZM363.634 45.72H423.064V54.61H363.634V45.72ZM370.214 59.02H415.994V80.65H404.724V67.84H370.214V59.02ZM371.054 16.67H382.184V21.57H404.444V16.67H415.644V42.43H371.054V16.67ZM382.184 29.9V33.68H404.444V29.9H382.184Z" fill="#00A791"/>
</svg>
