<svg xmlns="http://www.w3.org/2000/svg" width="20.121" height="20.121" viewBox="0 0 20.121 20.121">
  <g id="eye-off" transform="translate(0.061 0.061)">
    <rect id="영역20_20" data-name="영역20*20" width="20" height="20" opacity="0"/>
    <path id="패스_83144" data-name="패스 83144" d="M14.711,15.053A7.924,7.924,0,0,1,10,16.6c-5.727,0-9-6.3-9-6.3A14.693,14.693,0,0,1,5.14,5.622M8.282,4.189A7.74,7.74,0,0,1,10,4c5.727,0,9,6.3,9,6.3a14.552,14.552,0,0,1-1.767,2.512m-5.545-.8a2.489,2.489,0,0,1-4.127-1.072,2.306,2.306,0,0,1,.7-2.313" transform="translate(0 -0.3)" fill="none" stroke="#555" stroke-linecap="round" stroke-linejoin="round" stroke-width="1.5"/>
    <line id="선_211" data-name="선 211" x2="18" y2="18" transform="translate(1 1)" fill="none" stroke="#555" stroke-linecap="round" stroke-linejoin="round" stroke-width="1.5"/>
  </g>
</svg>
