<svg xmlns="http://www.w3.org/2000/svg" width="21.92" height="21.92" viewBox="0 0 21.92 21.92">
  <g id="그룹_5683" data-name="그룹 5683" transform="translate(-1645.807 -925.255) rotate(-45)">
    <path id="패스_16537" data-name="패스 16537" d="M512.571,1833.515h0a4.006,4.006,0,0,1-4.012,4h-5.04a4.006,4.006,0,0,1-4.012-4h0a4.007,4.007,0,0,1,4.012-4" transform="translate(0 0)" fill="none" stroke="#555" stroke-linecap="round" stroke-width="1.5"/>
    <path id="패스_16538" data-name="패스 16538" d="M506.379,1833.515a4.006,4.006,0,0,1,4.012-4h5.04a4.007,4.007,0,0,1,4.012,4h0a4.006,4.006,0,0,1-4.012,4" transform="translate(0.064 0)" fill="none" stroke="#555" stroke-linecap="round" stroke-width="1.5"/>
  </g>
</svg>
